<svg id="Layer_4" data-name="Layer 4" xmlns="http://www.w3.org/2000/svg" xmlns:xlink="http://www.w3.org/1999/xlink" viewBox="0 0 536.22 130.7"><defs><style>.cls-1{clip-rule:evenodd;}.cls-2{fill-rule:evenodd;}.cls-3{clip-path:url(#clip-path);}.cls-4{clip-path:url(#clip-path-2);}.cls-5{clip-path:url(#clip-path-3);}.cls-6{clip-path:url(#clip-path-5);}.cls-7{clip-path:url(#clip-path-7);}.cls-8{clip-path:url(#clip-path-9);}.cls-9{clip-path:url(#clip-path-11);}.cls-10{clip-path:url(#clip-path-13);}.cls-11{clip-path:url(#clip-path-15);}</style><clipPath id="clip-path"><path class="cls-1" d="M139.52,21.4a31.2,31.2,0,0,1,8.5.9l25.12,52.07,7.7-52.49A22.49,22.49,0,0,1,190.42,19a16.62,16.62,0,0,1,9,2.11l-13.86,95a14.1,14.1,0,0,1-9.1,3.92,20.68,20.68,0,0,1-8.51-1.56L144.71,65.65l-8.38,54.51a41.12,41.12,0,0,1-10.11,2q-6.36.33-10.16-2.56L129.8,26q3.21-4.28,9.72-4.61"/></clipPath><clipPath id="clip-path-2"><rect x="-237.83" y="-80.13" width="4124" height="2941"/></clipPath><clipPath id="clip-path-3"><path class="cls-1" d="M222.54,15.66c.86,0,1.74-.06,2.64-.05l11.71,34.25,22.66-35.77c.82-.09,1.61-.16,2.38-.2q11.25-.63,15.23,5.7L243.54,68.83l-6.08,48a33.35,33.35,0,0,1-10.65,2.62,19.31,19.31,0,0,1-9.27-1.64l6-48.43L204.9,24.13q6.3-7.83,17.64-8.47"/></clipPath><clipPath id="clip-path-5"><path class="cls-1" d="M297.41,14.21a55.29,55.29,0,0,1,10.17.54L295.91,93.51l38.84-3q4.29,11.75-3.51,22.68l-56.43,5q-2.73-.39-3-4.1L285.7,17.2a26.75,26.75,0,0,1,11.71-3"/></clipPath><clipPath id="clip-path-7"><path class="cls-1" d="M366.51,8.68A38.32,38.32,0,0,1,378.61,10L362.33,110.78a38.1,38.1,0,0,1-10.58,2.35A19.74,19.74,0,0,1,341,111L358.36,10.16a33.82,33.82,0,0,1,8.15-1.48"/></clipPath><clipPath id="clip-path-9"><path class="cls-1" d="M421,7.93c1.2-.07,2.43-.1,3.7-.08q16.41.15,28,8.72a37.66,37.66,0,0,1-9.41,23.24q-13.21-11-22.13-10.49a11.11,11.11,0,0,0-1.16.12,14.66,14.66,0,0,0-2,0q-6.65.38-7.7,7.34-.72,4.53,11,11Q435,53.26,441.14,61.12t4.31,19.68a36.29,36.29,0,0,1-15.57,25.26q-7.22,5.61-19.06,6.29-2,.12-4.17.09a50.54,50.54,0,0,1-26.22-10.27q-2.65-15.53,6.93-24.69Q402.51,87,409.55,89q13.53-.92,15.5-8.35c.55-3.93-1.85-7.57-7.25-10.89l-15.31-7.73q-14.28-8-13.4-24.13a36.7,36.7,0,0,1,7.28-17q5.89-7.72,12.63-10.43a38.15,38.15,0,0,1,12-2.52"/></clipPath><clipPath id="clip-path-11"><path class="cls-1" d="M535,.42q3.31,10.56-2.43,21.65l-22.93,1.6-10.34,78.49a25.24,25.24,0,0,1-9.92,2.69,27.17,27.17,0,0,1-10.74-1.69l10.94-77.52L467,27.41Q461.19,15.2,468.31,6Z"/></clipPath><clipPath id="clip-path-13"><path class="cls-1" d="M97.72,25.41a37.94,37.94,0,0,1,12.09,1.34L93.53,127.51A37.7,37.7,0,0,1,83,129.85a19.76,19.76,0,0,1-10.72-2.15L89.57,26.89a33.82,33.82,0,0,1,8.15-1.48"/></clipPath><clipPath id="clip-path-15"><path class="cls-1" d="M12.11,29.8A66,66,0,0,1,24,30.26l5.84,69.58L56.73,28.6a73.88,73.88,0,0,1,12-1.6A74.68,74.68,0,0,1,81,27.38l-44.9,99.84a29,29,0,0,1-11.52,3.33,20.83,20.83,0,0,1-10.12-2L.17,31.46A69.41,69.41,0,0,1,12.11,29.8"/></clipPath></defs><title>Artboard 1 copy</title><path class="cls-2" d="M139.52,21.4a31.2,31.2,0,0,1,8.5.9l25.12,52.07,7.7-52.49A22.49,22.49,0,0,1,190.42,19a16.62,16.62,0,0,1,9,2.11l-13.86,95a14.1,14.1,0,0,1-9.1,3.92,20.68,20.68,0,0,1-8.51-1.56L144.71,65.65l-8.38,54.51a41.12,41.12,0,0,1-10.11,2q-6.36.33-10.16-2.56L129.8,26q3.21-4.28,9.72-4.61"/><g class="cls-3"><rect x="-237.83" y="-80.13" width="4124" height="2941"/><g class="cls-4"><rect x="89" y="19" width="137.45" height="103.09" transform="translate(73.7 221.51) rotate(-85)"/></g></g><path class="cls-2" d="M222.54,15.66c.86,0,1.74-.06,2.64-.05l11.71,34.25,22.66-35.77c.82-.09,1.61-.16,2.38-.2q11.25-.63,15.23,5.7L243.54,68.83l-6.08,48a33.35,33.35,0,0,1-10.65,2.62,19.31,19.31,0,0,1-9.27-1.64l6-48.43L204.9,24.13q6.3-7.83,17.64-8.47"/><g class="cls-5"><rect x="-237.83" y="-80.13" width="4124" height="2941"/><g class="cls-4"><rect x="168.44" y="15.88" width="137.45" height="100.23" transform="matrix(0.09, -1, 1, 0.09, 150.76, 296.51)"/></g></g><path class="cls-2" d="M297.41,14.21a55.29,55.29,0,0,1,10.17.54L295.91,93.51l38.84-3q4.29,11.75-3.51,22.68l-56.43,5q-2.73-.39-3-4.1L285.7,17.2a26.75,26.75,0,0,1,11.71-3"/><g class="cls-6"><rect x="-237.83" y="-80.13" width="4124" height="2941"/><g class="cls-4"><rect x="240.14" y="22.01" width="134.59" height="91.64" transform="translate(213.07 368.18) rotate(-85)"/></g></g><path class="cls-2" d="M366.51,8.68A38.32,38.32,0,0,1,378.61,10L362.33,110.78a38.1,38.1,0,0,1-10.58,2.35A19.74,19.74,0,0,1,341,111L358.36,10.16a33.82,33.82,0,0,1,8.15-1.48"/><g class="cls-7"><rect x="-237.83" y="-80.13" width="4124" height="2941"/><g class="cls-4"><rect x="292.49" y="32.27" width="134.59" height="57.27" transform="translate(267.75 414.01) rotate(-85)"/></g></g><path class="cls-2" d="M421,7.93c1.2-.07,2.43-.1,3.7-.08q16.41.15,28,8.72a37.66,37.66,0,0,1-9.41,23.24q-13.21-11-22.13-10.49a11.11,11.11,0,0,0-1.16.12,14.66,14.66,0,0,0-2,0q-6.65.38-7.7,7.34-.72,4.53,11,11Q435,53.26,441.14,61.12t4.31,19.68a36.29,36.29,0,0,1-15.57,25.26q-7.22,5.61-19.06,6.29-2,.12-4.17.09a50.54,50.54,0,0,1-26.22-10.27q-2.65-15.53,6.93-24.69Q402.51,87,409.55,89q13.53-.92,15.5-8.35c.55-3.93-1.85-7.57-7.25-10.89l-15.31-7.73q-14.28-8-13.4-24.13a36.7,36.7,0,0,1,7.28-17q5.89-7.72,12.63-10.43a38.15,38.15,0,0,1,12-2.52"/><g class="cls-8"><rect x="-237.83" y="-80.13" width="4124" height="2941"/><g class="cls-4"><rect x="348.61" y="12.82" width="134.59" height="94.5" transform="translate(319.82 469.16) rotate(-85)"/></g></g><path class="cls-2" d="M535,.42q3.31,10.56-2.43,21.65l-22.93,1.6-10.34,78.49a25.24,25.24,0,0,1-9.92,2.69,27.17,27.17,0,0,1-10.74-1.69l10.94-77.52L467,27.41Q461.19,15.2,468.31,6Z"/><g class="cls-9"><rect x="-237.83" y="-80.13" width="4124" height="2941"/><g class="cls-4"><rect x="428.45" y="1.65" width="136.89" height="99.55" transform="translate(402.36 541.95) rotate(-85)"/></g></g><path class="cls-2" d="M97.72,25.41a37.94,37.94,0,0,1,12.09,1.34L93.53,127.51A37.7,37.7,0,0,1,83,129.85a19.76,19.76,0,0,1-10.72-2.15L89.57,26.89a33.82,33.82,0,0,1,8.15-1.48"/><g class="cls-10"><rect x="-237.83" y="-80.13" width="4124" height="2941"/><g class="cls-4"><rect x="23.69" y="49" width="134.59" height="57.27" transform="translate(5.72 161.51) rotate(-85)"/></g></g><path class="cls-2" d="M12.11,29.8A66,66,0,0,1,24,30.26l5.84,69.58L56.73,28.6a73.88,73.88,0,0,1,12-1.6A74.68,74.68,0,0,1,81,27.38l-44.9,99.84a29,29,0,0,1-11.52,3.33,20.83,20.83,0,0,1-10.12-2L.17,31.46A69.41,69.41,0,0,1,12.11,29.8"/><g class="cls-11"><rect x="-237.83" y="-80.13" width="4124" height="2941"/><g class="cls-4"><rect x="-31.94" y="23.24" width="136.56" height="108.75" transform="translate(-44.15 107.06) rotate(-85)"/></g></g></svg>