<svg xmlns="http://www.w3.org/2000/svg" xmlns:xlink="http://www.w3.org/1999/xlink" viewBox="0 0 536 130.2">
  <path d="M139.3 21c2.9-.1 5.7.2 8.5.9L172.9 74l7.7-52.5c2.9-1.7 6.2-2.7 9.6-2.9 3.1-.2 6.3.6 9 2.1l-13.9 95c-2.5 2.4-5.7 3.8-9.1 3.9-2.9.1-5.8-.4-8.5-1.6l-23.2-52.8-8.4 54.5c-3.3 1.1-6.7 1.8-10.1 2-4.2.2-7.6-.6-10.2-2.6l13.7-93.6c2.2-2.8 5.5-4.3 9.8-4.5"/>
  <defs>
    <path id="a" d="M139.3 21c2.9-.1 5.7.2 8.5.9L172.9 74l7.7-52.5c2.9-1.7 6.2-2.7 9.6-2.9 3.1-.2 6.3.6 9 2.1l-13.9 95c-2.5 2.4-5.7 3.8-9.1 3.9-2.9.1-5.8-.4-8.5-1.6l-23.2-52.8-8.4 54.5c-3.3 1.1-6.7 1.8-10.1 2-4.2.2-7.6-.6-10.2-2.6l13.7-93.6c2.2-2.8 5.5-4.3 9.8-4.5"/>
  </defs>
  <clipPath id="b">
    <use overflow="visible" xlink:href="#a"/>
  </clipPath>
  <g clip-path="url(#b)">
    <path d="M100.2 134.1l12-136.9 102.7 9-12 136.9-102.7-9z"/>
  </g>
  <path d="M222.3 15.3c.9 0 1.7-.1 2.6-.1l11.8 34.3 22.7-35.8c.8-.1 1.6-.2 2.4-.2 7.5-.4 12.6 1.5 15.2 5.7l-33.6 49.2-6.1 48c-3.4 1.5-7 2.3-10.6 2.6-3.2.2-6.4-.3-9.3-1.6l6-48.4-18.6-45.2c4.1-5.3 10-8.1 17.5-8.5"/>
  <defs>
    <path id="c" d="M222.3 15.3c.9 0 1.7-.1 2.6-.1l11.8 34.3 22.7-35.8c.8-.1 1.6-.2 2.4-.2 7.5-.4 12.6 1.5 15.2 5.7l-33.6 49.2-6.1 48c-3.4 1.5-7 2.3-10.6 2.6-3.2.2-6.4-.3-9.3-1.6l6-48.4-18.6-45.2c4.1-5.3 10-8.1 17.5-8.5"/>
  </defs>
  <clipPath id="d">
    <use overflow="visible" xlink:href="#c"/>
  </clipPath>
  <g clip-path="url(#d)">
    <path d="M181.6 129.1L194-8.4l100.2 9-12.4 137.5-100.2-9z"/>
  </g>
  <path d="M297.2 13.8c3.4-.1 6.8 0 10.2.5l-11.7 78.8 38.8-3c2.9 7.8 1.7 15.4-3.5 22.7l-56.4 5c-1.8-.3-2.8-1.6-3-4.1l13.9-96.9c3.6-1.9 7.6-2.9 11.7-3"/>
  <defs>
    <path id="e" d="M297.2 13.8c3.4-.1 6.8 0 10.2.5l-11.7 78.8 38.8-3c2.9 7.8 1.7 15.4-3.5 22.7l-56.4 5c-1.8-.3-2.8-1.6-3-4.1l13.9-96.9c3.6-1.9 7.6-2.9 11.7-3"/>
  </defs>
  <clipPath id="f">
    <use overflow="visible" xlink:href="#e"/>
  </clipPath>
  <g clip-path="url(#f)">
    <path d="M255.7 130.5L267.4-3.6l91.3 8L347 138.5l-91.3-8z"/>
  </g>
  <path d="M366.3 8.3c4.1-.2 8.2.2 12.1 1.3l-16.3 100.8c-3.4 1.3-7 2.1-10.6 2.3-3.7.3-7.4-.4-10.8-2.1L358.1 9.8c2.7-.9 5.4-1.4 8.2-1.5"/>
  <defs>
    <path id="g" d="M366.3 8.3c4.1-.2 8.2.2 12.1 1.3l-16.3 100.8c-3.4 1.3-7 2.1-10.6 2.3-3.7.3-7.4-.4-10.8-2.1L358.1 9.8c2.7-.9 5.4-1.4 8.2-1.5"/>
  </defs>
  <clipPath id="h">
    <use overflow="visible" xlink:href="#g"/>
  </clipPath>
  <g clip-path="url(#h)">
    <path d="M325.2 125L336.9-9.1l57.1 5L382.3 130l-57.1-5z"/>
  </g>
  <path d="M420.8 7.5c1.2-.1 2.4-.1 3.7-.1 10.9.1 20.3 3 28 8.7-.4 8.6-3.7 16.8-9.4 23.2-8.8-7.3-16.2-10.8-22.1-10.5-.4 0-.8.1-1.2.1h-2c-4.4.3-7 2.7-7.7 7.3-.5 3 3.2 6.7 11 11 9.1 3.7 15.7 8.1 19.8 13.3s5.5 11.8 4.3 19.7c-1.4 10.3-7 19.4-15.6 25.3-4.8 3.7-11.2 5.8-19.1 6.3-1.3.1-2.7.1-4.2.1-9.5-.9-18.6-4.4-26.2-10.3-1.8-10.4.5-18.6 6.9-24.7 10.1 6.3 17.5 10.2 22.2 11.5 9-.6 14.2-3.4 15.5-8.3.5-3.9-1.9-7.6-7.2-10.9l-15.3-7.7c-9.5-5.3-14-13.4-13.4-24.1.9-6.2 3.4-12 7.3-17 3.9-5.1 8.1-8.6 12.6-10.4 3.9-1.4 8-2.3 12.1-2.5"/>
  <defs>
    <path id="i" d="M420.8 7.5c1.2-.1 2.4-.1 3.7-.1 10.9.1 20.3 3 28 8.7-.4 8.6-3.7 16.8-9.4 23.2-8.8-7.3-16.2-10.8-22.1-10.5-.4 0-.8.1-1.2.1h-2c-4.4.3-7 2.7-7.7 7.3-.5 3 3.2 6.7 11 11 9.1 3.7 15.7 8.1 19.8 13.3s5.5 11.8 4.3 19.7c-1.4 10.3-7 19.4-15.6 25.3-4.8 3.7-11.2 5.8-19.1 6.3-1.3.1-2.7.1-4.2.1-9.5-.9-18.6-4.4-26.2-10.3-1.8-10.4.5-18.6 6.9-24.7 10.1 6.3 17.5 10.2 22.2 11.5 9-.6 14.2-3.4 15.5-8.3.5-3.9-1.9-7.6-7.2-10.9l-15.3-7.7c-9.5-5.3-14-13.4-13.4-24.1.9-6.2 3.4-12 7.3-17 3.9-5.1 8.1-8.6 12.6-10.4 3.9-1.4 8-2.3 12.1-2.5"/>
  </defs>
  <clipPath id="j">
    <use overflow="visible" xlink:href="#i"/>
  </clipPath>
  <g clip-path="url(#j)">
    <path d="M362.8 122.6l11.7-134.1 94.1 8.2-11.7 134.1-94.1-8.2z"/>
  </g>
  <path d="M534.8 0c2.2 7 1.4 14.3-2.4 21.7l-22.9 1.6-10.3 78.5c-3.1 1.6-6.5 2.5-9.9 2.7-3.7.2-7.3-.4-10.7-1.7l10.9-77.5-22.6 1.8c-3.9-8.1-3.4-15.3 1.3-21.4L534.8 0z"/>
  <defs>
    <path id="k" d="M534.8 0c2.2 7 1.4 14.3-2.4 21.7l-22.9 1.6-10.3 78.5c-3.1 1.6-6.5 2.5-9.9 2.7-3.7.2-7.3-.4-10.7-1.7l10.9-77.5-22.6 1.8c-3.9-8.1-3.4-15.3 1.3-21.4L534.8 0z"/>
  </defs>
  <clipPath id="l">
    <use overflow="visible" xlink:href="#k"/>
  </clipPath>
  <g clip-path="url(#l)">
    <path d="M441.1 114.9l12-136.4 99.2 8.7-12 136.3-99.2-8.6z"/>
  </g>
  <path d="M97.5 25c4.1-.2 8.2.2 12.1 1.3L93.3 127.1c-3.4 1.3-6.9 2.1-10.5 2.3-3.7.3-7.4-.4-10.7-2.2L89.4 26.5c2.6-.8 5.3-1.3 8.1-1.5"/>
  <defs>
    <path id="m" d="M97.5 25c4.1-.2 8.2.2 12.1 1.3L93.3 127.1c-3.4 1.3-6.9 2.1-10.5 2.3-3.7.3-7.4-.4-10.7-2.2L89.4 26.5c2.6-.8 5.3-1.3 8.1-1.5"/>
  </defs>
  <clipPath id="n">
    <use overflow="visible" xlink:href="#m"/>
  </clipPath>
  <g clip-path="url(#n)">
    <path d="M56.4 141.8L68.1 7.7l57.1 5-11.7 134.1-57.1-5z"/>
  </g>
  <path d="M11.9 29.4c4-.2 7.9-.1 11.9.5l5.8 69.6 26.9-71.2c3.9-.9 8-1.4 12-1.6 4.1-.2 8.2-.1 12.3.4l-44.9 99.8c-3.6 1.9-7.5 3-11.5 3.3-3.5.2-7-.5-10.1-2L0 31.1c3.9-.9 7.9-1.5 11.9-1.7"/>
  <defs>
    <path id="o" d="M11.9 29.4c4-.2 7.9-.1 11.9.5l5.8 69.6 26.9-71.2c3.9-.9 8-1.4 12-1.6 4.1-.2 8.2-.1 12.3.4l-44.9 99.8c-3.6 1.9-7.5 3-11.5 3.3-3.5.2-7-.5-10.1-2L0 31.1c3.9-.9 7.9-1.5 11.9-1.7"/>
  </defs>
  <clipPath id="p">
    <use overflow="visible" xlink:href="#o"/>
  </clipPath>
  <g clip-path="url(#p)">
    <path d="M-24 140.5l11.9-136L96.2 14 84.3 150-24 140.5z"/>
  </g>
</svg>
